<?xml version="1.0"?>
<!-- Created by MetaPost 2.000 on 2023.08.28:1608 -->
<svg version="1.1" xmlns="http://www.w3.org/2000/svg" xmlns:xlink="http://www.w3.org/1999/xlink" width="272.912674" height="289.278793" viewBox="0 0 272.912674 289.278793">
<!-- Original BoundingBox: -161.210388 -27.156754 111.702286 262.122040 -->
  <defs>
    <g transform="scale(0.009963,0.009963)" id="GLYPHcmr10_49">
      <path style="fill-rule: evenodd;" d="M294.000000 -640.000000C294.000000 -664.000000,294.000000 -666.000000,271.000000 -666.000000C209.000000 -602.000000,121.000000 -602.000000,89.000000 -602.000000L89.000000 -571.000000C109.000000 -571.000000,168.000000 -571.000000,220.000000 -597.000000L220.000000 -79.000000C220.000000 -43.000000,217.000000 -31.000000,127.000000 -31.000000L95.000000 -31.000000L95.000000 -0.000000C130.000000 -3.000000,217.000000 -3.000000,257.000000 -3.000000C297.000000 -3.000000,384.000000 -3.000000,419.000000 -0.000000L419.000000 -31.000000L387.000000 -31.000000C297.000000 -31.000000,294.000000 -42.000000,294.000000 -79.000000"></path>
    </g>
    <g transform="scale(0.009963,0.009963)" id="GLYPHcmr10_50">
      <path style="fill-rule: evenodd;" d="M127.000000 -77.000000L233.000000 -180.000000C389.000000 -318.000000,449.000000 -372.000000,449.000000 -472.000000C449.000000 -586.000000,359.000000 -666.000000,237.000000 -666.000000C124.000000 -666.000000,50.000000 -574.000000,50.000000 -485.000000C50.000000 -429.000000,100.000000 -429.000000,103.000000 -429.000000C120.000000 -429.000000,155.000000 -441.000000,155.000000 -482.000000C155.000000 -508.000000,137.000000 -534.000000,102.000000 -534.000000C94.000000 -534.000000,92.000000 -534.000000,89.000000 -533.000000C112.000000 -598.000000,166.000000 -635.000000,224.000000 -635.000000C315.000000 -635.000000,358.000000 -554.000000,358.000000 -472.000000C358.000000 -392.000000,308.000000 -313.000000,253.000000 -251.000000L61.000000 -37.000000C50.000000 -26.000000,50.000000 -24.000000,50.000000 -0.000000L421.000000 -0.000000L449.000000 -174.000000L424.000000 -174.000000C419.000000 -144.000000,412.000000 -100.000000,402.000000 -85.000000C395.000000 -77.000000,329.000000 -77.000000,307.000000 -77.000000"></path>
    </g>
    <g transform="scale(0.009963,0.009963)" id="GLYPHcmr10_51">
      <path style="fill-rule: evenodd;" d="M290.000000 -352.000000C372.000000 -379.000000,430.000000 -449.000000,430.000000 -528.000000C430.000000 -610.000000,342.000000 -666.000000,246.000000 -666.000000C145.000000 -666.000000,69.000000 -606.000000,69.000000 -530.000000C69.000000 -497.000000,91.000000 -478.000000,120.000000 -478.000000C151.000000 -478.000000,171.000000 -500.000000,171.000000 -529.000000C171.000000 -579.000000,124.000000 -579.000000,109.000000 -579.000000C140.000000 -628.000000,206.000000 -641.000000,242.000000 -641.000000C283.000000 -641.000000,338.000000 -619.000000,338.000000 -529.000000C338.000000 -517.000000,336.000000 -459.000000,310.000000 -415.000000C280.000000 -367.000000,246.000000 -364.000000,221.000000 -363.000000C213.000000 -362.000000,189.000000 -360.000000,182.000000 -360.000000C174.000000 -359.000000,167.000000 -358.000000,167.000000 -348.000000C167.000000 -337.000000,174.000000 -337.000000,191.000000 -337.000000L235.000000 -337.000000C317.000000 -337.000000,354.000000 -269.000000,354.000000 -171.000000C354.000000 -35.000000,285.000000 -6.000000,241.000000 -6.000000C198.000000 -6.000000,123.000000 -23.000000,88.000000 -82.000000C123.000000 -77.000000,154.000000 -99.000000,154.000000 -137.000000C154.000000 -173.000000,127.000000 -193.000000,98.000000 -193.000000C74.000000 -193.000000,42.000000 -179.000000,42.000000 -135.000000C42.000000 -44.000000,135.000000 22.000000,244.000000 22.000000C366.000000 22.000000,457.000000 -69.000000,457.000000 -171.000000C457.000000 -253.000000,394.000000 -331.000000,290.000000 -352.000000"></path>
    </g>
    <g transform="scale(0.009963,0.009963)" id="GLYPHcmr10_52">
      <path style="fill-rule: evenodd;" d="M294.000000 -165.000000L294.000000 -78.000000C294.000000 -42.000000,292.000000 -31.000000,218.000000 -31.000000L197.000000 -31.000000L197.000000 -0.000000C238.000000 -3.000000,290.000000 -3.000000,332.000000 -3.000000C374.000000 -3.000000,427.000000 -3.000000,468.000000 -0.000000L468.000000 -31.000000L447.000000 -31.000000C373.000000 -31.000000,371.000000 -42.000000,371.000000 -78.000000L371.000000 -165.000000L471.000000 -165.000000L471.000000 -196.000000L371.000000 -196.000000L371.000000 -651.000000C371.000000 -671.000000,371.000000 -677.000000,355.000000 -677.000000C346.000000 -677.000000,343.000000 -677.000000,335.000000 -665.000000L28.000000 -196.000000L28.000000 -165.000000M300.000000 -196.000000L56.000000 -196.000000L300.000000 -569.000000"></path>
    </g>
    <g transform="scale(0.009963,0.009963)" id="GLYPHcmr10_53">
      <path style="fill-rule: evenodd;" d="M449.000000 -201.000000C449.000000 -320.000000,367.000000 -420.000000,259.000000 -420.000000C211.000000 -420.000000,168.000000 -404.000000,132.000000 -369.000000L132.000000 -564.000000C152.000000 -558.000000,185.000000 -551.000000,217.000000 -551.000000C340.000000 -551.000000,410.000000 -642.000000,410.000000 -655.000000C410.000000 -661.000000,407.000000 -666.000000,400.000000 -666.000000C399.000000 -666.000000,397.000000 -666.000000,392.000000 -663.000000C372.000000 -654.000000,323.000000 -634.000000,256.000000 -634.000000C216.000000 -634.000000,170.000000 -641.000000,123.000000 -662.000000C115.000000 -665.000000,113.000000 -665.000000,111.000000 -665.000000C101.000000 -665.000000,101.000000 -657.000000,101.000000 -641.000000L101.000000 -345.000000C101.000000 -327.000000,101.000000 -319.000000,115.000000 -319.000000C122.000000 -319.000000,124.000000 -322.000000,128.000000 -328.000000C139.000000 -344.000000,176.000000 -398.000000,257.000000 -398.000000C309.000000 -398.000000,334.000000 -352.000000,342.000000 -334.000000C358.000000 -297.000000,360.000000 -258.000000,360.000000 -208.000000C360.000000 -173.000000,360.000000 -113.000000,336.000000 -71.000000C312.000000 -32.000000,275.000000 -6.000000,229.000000 -6.000000C156.000000 -6.000000,99.000000 -59.000000,82.000000 -118.000000C85.000000 -117.000000,88.000000 -116.000000,99.000000 -116.000000C132.000000 -116.000000,149.000000 -141.000000,149.000000 -165.000000C149.000000 -189.000000,132.000000 -214.000000,99.000000 -214.000000C85.000000 -214.000000,50.000000 -207.000000,50.000000 -161.000000C50.000000 -75.000000,119.000000 22.000000,231.000000 22.000000C347.000000 22.000000,449.000000 -74.000000,449.000000 -201.000000"></path>
    </g>
    <g transform="scale(0.009963,0.009963)" id="GLYPHcmr10_54">
      <path style="fill-rule: evenodd;" d="M132.000000 -328.000000L132.000000 -352.000000C132.000000 -605.000000,256.000000 -641.000000,307.000000 -641.000000C331.000000 -641.000000,373.000000 -635.000000,395.000000 -601.000000C380.000000 -601.000000,340.000000 -601.000000,340.000000 -556.000000C340.000000 -525.000000,364.000000 -510.000000,386.000000 -510.000000C402.000000 -510.000000,432.000000 -519.000000,432.000000 -558.000000C432.000000 -618.000000,388.000000 -666.000000,305.000000 -666.000000C177.000000 -666.000000,42.000000 -537.000000,42.000000 -316.000000C42.000000 -49.000000,158.000000 22.000000,251.000000 22.000000C362.000000 22.000000,457.000000 -72.000000,457.000000 -204.000000C457.000000 -331.000000,368.000000 -427.000000,257.000000 -427.000000C189.000000 -427.000000,152.000000 -376.000000,132.000000 -328.000000M251.000000 -6.000000C188.000000 -6.000000,158.000000 -66.000000,152.000000 -81.000000C134.000000 -128.000000,134.000000 -208.000000,134.000000 -226.000000C134.000000 -304.000000,166.000000 -404.000000,256.000000 -404.000000C272.000000 -404.000000,318.000000 -404.000000,349.000000 -342.000000C367.000000 -305.000000,367.000000 -254.000000,367.000000 -205.000000C367.000000 -157.000000,367.000000 -107.000000,350.000000 -71.000000C320.000000 -11.000000,274.000000 -6.000000,251.000000 -6.000000"></path>
    </g>
    <g transform="scale(0.009963,0.009963)" id="GLYPHcmr10_55">
      <path style="fill-rule: evenodd;" d="M476.000000 -609.000000C485.000000 -621.000000,485.000000 -623.000000,485.000000 -644.000000L242.000000 -644.000000C120.000000 -644.000000,118.000000 -657.000000,114.000000 -676.000000L89.000000 -676.000000L56.000000 -470.000000L81.000000 -470.000000C84.000000 -486.000000,93.000000 -549.000000,106.000000 -561.000000C113.000000 -567.000000,191.000000 -567.000000,204.000000 -567.000000L411.000000 -567.000000C400.000000 -551.000000,321.000000 -442.000000,299.000000 -409.000000C209.000000 -274.000000,176.000000 -135.000000,176.000000 -33.000000C176.000000 -23.000000,176.000000 22.000000,222.000000 22.000000C268.000000 22.000000,268.000000 -23.000000,268.000000 -33.000000L268.000000 -84.000000C268.000000 -139.000000,271.000000 -194.000000,279.000000 -248.000000C283.000000 -271.000000,297.000000 -357.000000,341.000000 -419.000000"></path>
    </g>
    <g transform="scale(0.009963,0.009963)" id="GLYPHcmr10_56">
      <path style="fill-rule: evenodd;" d="M163.000000 -457.000000C117.000000 -487.000000,113.000000 -521.000000,113.000000 -538.000000C113.000000 -599.000000,178.000000 -641.000000,249.000000 -641.000000C322.000000 -641.000000,386.000000 -589.000000,386.000000 -517.000000C386.000000 -460.000000,347.000000 -412.000000,287.000000 -377.000000M309.000000 -362.000000C381.000000 -399.000000,430.000000 -451.000000,430.000000 -517.000000C430.000000 -609.000000,341.000000 -666.000000,250.000000 -666.000000C150.000000 -666.000000,69.000000 -592.000000,69.000000 -499.000000C69.000000 -481.000000,71.000000 -436.000000,113.000000 -389.000000C124.000000 -377.000000,161.000000 -352.000000,186.000000 -335.000000C128.000000 -306.000000,42.000000 -250.000000,42.000000 -151.000000C42.000000 -45.000000,144.000000 22.000000,249.000000 22.000000C362.000000 22.000000,457.000000 -61.000000,457.000000 -168.000000C457.000000 -204.000000,446.000000 -249.000000,408.000000 -291.000000C389.000000 -312.000000,373.000000 -322.000000,309.000000 -362.000000M209.000000 -320.000000L332.000000 -242.000000C360.000000 -223.000000,407.000000 -193.000000,407.000000 -132.000000C407.000000 -58.000000,332.000000 -6.000000,250.000000 -6.000000C164.000000 -6.000000,92.000000 -68.000000,92.000000 -151.000000C92.000000 -209.000000,124.000000 -273.000000,209.000000 -320.000000"></path>
    </g>
  </defs>
  <path d="M161.000000 200.702072C170.417389 214.579727,172.771744 231.712753,168.063034 247.218079" style="stroke:rgb(0.000000%,0.000000%,0.000000%); stroke-width: 0.498138;stroke-linecap: round;stroke-linejoin: round;stroke-miterlimit: 10.000000;fill: none;"></path>
  <path d="M167.148941 241.288147C167.560974 243.240662,167.866867 245.220169,168.063034 247.218079C169.337082 245.666641,170.520538 244.050659,171.609848 242.378693Z" style="stroke:rgb(0.000000%,0.000000%,0.000000%); stroke-width: 0.498138;fill: rgb(0.000000%,0.000000%,0.000000%);"></path>
  <path d="M168.063034 247.218079C166.493469 252.386520,164.139130 257.374115,161.000000 262.000000C142.791397 288.832565,106.818283 295.043915,75.754318 283.098160" style="stroke:rgb(0.000000%,0.000000%,0.000000%); stroke-width: 0.498138;stroke-linecap: round;stroke-linejoin: round;stroke-miterlimit: 10.000000;fill: none;"></path>
  <path d="M75.754318 283.098160C45.349045 271.405716,23.351608 243.013474,30.281006 212.553543C34.344437 194.691666,48.302368 181.341446,64.683197 172.965225C73.378281 168.519058,82.672882 165.435928,91.874573 162.177292C96.097214 160.681915,100.420364 159.150345,104.768021 158.295486" style="stroke:rgb(0.000000%,0.000000%,0.000000%); stroke-width: 0.498138;stroke-linecap: round;stroke-linejoin: round;stroke-miterlimit: 10.000000;fill: none;"></path>
  <path d="M258.992050 45.350876C250.470474 25.256943,230.621216 13.600067,210.191666 14.403748" style="stroke:rgb(0.000000%,0.000000%,0.000000%); stroke-width: 0.498138;stroke-linecap: round;stroke-linejoin: round;stroke-miterlimit: 10.000000;fill: none;"></path>
  <path d="M215.779526 12.219498C213.883255 12.833908,212.017014 13.562119,210.191666 14.403748C212.077499 15.099380,213.912033 15.904129,215.687332 16.810562Z" style="stroke:rgb(0.000000%,0.000000%,0.000000%); stroke-width: 0.498138;fill: rgb(0.000000%,0.000000%,0.000000%);"></path>
  <path d="M210.191666 14.403748C203.381821 14.671646,196.507492 16.324036,189.966751 19.509949C175.076797 26.762665,165.250229 41.029602,160.541718 56.947540" style="stroke:rgb(0.000000%,0.000000%,0.000000%); stroke-width: 0.498138;stroke-linecap: round;stroke-linejoin: round;stroke-miterlimit: 10.000000;fill: none;"></path>
  <path d="M160.541718 56.947540C157.940155 65.742538,156.914078 74.890488,155.660446 83.970810C155.067490 88.265762,154.450775 92.668823,154.497482 96.953659" style="stroke:rgb(0.000000%,0.000000%,0.000000%); stroke-width: 0.498138;stroke-linecap: round;stroke-linejoin: round;stroke-miterlimit: 10.000000;fill: none;"></path>
  <path d="M119.950409 82.612885C131.855560 83.016983,143.758987 83.469635,155.660446 83.970810C162.255249 84.248535,168.855530 84.541672,175.403671 85.379547C181.528000 86.163193,187.579132 87.419846,193.560822 88.947952C201.890335 91.075851,210.073135 93.726349,218.200485 96.527130C234.956024 102.301300,252.053558 109.198700,262.415253 123.600204C282.539551 151.570557,269.544495 188.664520,248.591415 217.963318C226.942383 248.235260,194.733643 273.020233,161.000000 262.000000C142.698227 256.021103,130.424530 240.076279,119.872452 223.970123C114.808044 216.240067,109.965973 208.360718,105.686707 200.169067C102.650742 194.357437,99.902542 188.396255,97.634796 182.243561C95.225235 175.706100,93.368881 168.981979,91.874573 162.177292C89.235535 150.159821,87.708328 137.840454,83.304855 126.338730C75.668747 106.393463,59.693008 89.374344,59.172287 67.818161C58.443634 37.654999,84.936554 16.010651,114.676865 5.873413C142.138962 -3.487289,173.761108 -3.031723,189.966751 19.509949C199.228607 32.392975,199.618622 49.008224,197.823639 64.799942C196.899643 72.928986,195.463272 80.990921,193.560822 88.947952C192.080170 95.140808,190.314209 101.276688,187.732605 107.099365C184.943893 113.389160,181.248154 119.213638,177.459244 124.953400C171.652206 133.750381,165.604050 142.389343,159.108810 150.691711C152.565765 159.055176,145.582092 167.060425,138.387756 174.870102C133.531464 180.141769,128.563141 185.338959,122.882446 189.714630C117.555145 193.818085,111.684967 197.134277,105.686707 200.169067C97.770676 204.174164,89.619095 207.698639,81.253769 210.653137C64.551697 216.552048,46.294937 220.007126,30.281006 212.553543C2.581299 199.660889,-3.754547 165.173965,1.963089 133.573685C7.948715 100.492264,27.370743 69.292343,59.172287 67.818161C80.368546 66.835587,98.830795 81.896011,119.950409 82.612885" style="stroke:rgb(0.000000%,0.000000%,0.000000%); stroke-width: 0.498138;stroke-linecap: round;stroke-linejoin: round;stroke-miterlimit: 10.000000;fill: none;"></path>
  <path d="M164.736038 262.000000C164.736038 261.009094,164.342346 260.058899,163.641724 259.358276C162.941101 258.657654,161.990906 258.263962,161.000000 258.263962C160.009094 258.263962,159.058899 258.657654,158.358276 259.358276C157.657654 260.058899,157.263962 261.009094,157.263962 262.000000C157.263962 262.990906,157.657654 263.941101,158.358276 264.641724C159.058899 265.342346,160.009094 265.736038,161.000000 265.736038C161.990906 265.736038,162.941101 265.342346,163.641724 264.641724C164.342346 263.941101,164.736038 262.990906,164.736038 262.000000Z" style="fill: rgb(100.000000%,100.000000%,100.000000%);stroke: none;"></path>
  <path d="M170.417389 231.351044C170.417389 242.049637,167.278259 252.748230,161.000000 262.000000C151.895691 275.416290,138.350266 283.677277,123.197906 287.090958" style="stroke:rgb(0.000000%,0.000000%,0.000000%); stroke-width: 0.498138;stroke-linecap: round;stroke-linejoin: round;stroke-miterlimit: 10.000000;fill: none;"></path>
  <path d="M95.610611 162.177292C95.610611 161.186386,95.216919 160.236191,94.516296 159.535568C93.815674 158.834946,92.865479 158.441254,91.874573 158.441254C90.883667 158.441254,89.933472 158.834946,89.232849 159.535568C88.532227 160.236191,88.138535 161.186386,88.138535 162.177292C88.138535 163.168198,88.532227 164.118393,89.232849 164.819016C89.933472 165.519638,90.883667 165.913330,91.874573 165.913330C92.865479 165.913330,93.815674 165.519638,94.516296 164.819016C95.216919 164.118393,95.610611 163.168198,95.610611 162.177292Z" style="fill: rgb(100.000000%,100.000000%,100.000000%);stroke: none;"></path>
  <path d="M78.088913 167.125931C82.649658 165.392044,87.273727 163.806610,91.874573 162.177292C96.097214 160.681915,100.420364 159.150345,104.768021 158.295486" style="stroke:rgb(0.000000%,0.000000%,0.000000%); stroke-width: 0.498138;stroke-linecap: round;stroke-linejoin: round;stroke-miterlimit: 10.000000;fill: none;"></path>
  <path d="M193.702789 19.509949C193.702789 18.519043,193.309097 17.568848,192.608475 16.868225C191.907852 16.167603,190.957657 15.773911,189.966751 15.773911C188.975845 15.773911,188.025650 16.167603,187.325027 16.868225C186.624405 17.568848,186.230713 18.519043,186.230713 19.509949C186.230713 20.500854,186.624405 21.451050,187.325027 22.151672C188.025650 22.852295,188.975845 23.245987,189.966751 23.245987C190.957657 23.245987,191.907852 22.852295,192.608475 22.151672C193.309097 21.451050,193.702789 20.500854,193.702789 19.509949Z" style="fill: rgb(100.000000%,100.000000%,100.000000%);stroke: none;"></path>
  <path d="M156.542999 0.728287C169.906998 2.489807,181.863937 8.239120,189.966751 19.509949C194.597687 25.951462,197.010651 33.326035,198.041519 41.064194" style="stroke:rgb(0.000000%,0.000000%,0.000000%); stroke-width: 0.498138;stroke-linecap: round;stroke-linejoin: round;stroke-miterlimit: 10.000000;fill: none;"></path>
  <path d="M181.195282 124.953400C181.195282 123.962494,180.801590 123.012299,180.100967 122.311676C179.400345 121.611053,178.450150 121.217361,177.459244 121.217361C176.468338 121.217361,175.518143 121.611053,174.817520 122.311676C174.116898 123.012299,173.723206 123.962494,173.723206 124.953400C173.723206 125.944305,174.116898 126.894501,174.817520 127.595123C175.518143 128.295746,176.468338 128.689438,177.459244 128.689438C178.450150 128.689438,179.400345 128.295746,180.100967 127.595123C180.801590 126.894501,181.195282 125.944305,181.195282 124.953400Z" style="fill: rgb(100.000000%,100.000000%,100.000000%);stroke: none;"></path>
  <path d="M182.970993 116.232666C181.224854 119.192474,179.353699 122.083527,177.459244 124.953400C174.555725 129.351898,171.591919 133.710892,168.542099 138.008057" style="stroke:rgb(0.000000%,0.000000%,0.000000%); stroke-width: 0.498138;stroke-linecap: round;stroke-linejoin: round;stroke-miterlimit: 10.000000;fill: none;"></path>
  <path d="M159.396484 83.970810C159.396484 82.979904,159.002792 82.029709,158.302170 81.329086C157.601547 80.628464,156.651352 80.234772,155.660446 80.234772C154.669540 80.234772,153.719345 80.628464,153.018723 81.329086C152.318100 82.029709,151.924408 82.979904,151.924408 83.970810C151.924408 84.961716,152.318100 85.911911,153.018723 86.612534C153.719345 87.313156,154.669540 87.706848,155.660446 87.706848C156.651352 87.706848,157.601547 87.313156,158.302170 86.612534C159.002792 85.911911,159.396484 84.961716,159.396484 83.970810Z" style="fill: rgb(100.000000%,100.000000%,100.000000%);stroke: none;"></path>
  <path d="M157.595596 70.352188C156.857178 74.873581,156.287262 79.430649,155.660446 83.970810C155.067490 88.265762,154.450775 92.668823,154.497482 96.953659" style="stroke:rgb(0.000000%,0.000000%,0.000000%); stroke-width: 0.498138;stroke-linecap: round;stroke-linejoin: round;stroke-miterlimit: 10.000000;fill: none;"></path>
  <path d="M266.151291 123.600204C266.151291 122.609299,265.757599 121.659103,265.056976 120.958481C264.356354 120.257858,263.406158 119.864166,262.415253 119.864166C261.424347 119.864166,260.474152 120.257858,259.773529 120.958481C259.072906 121.659103,258.679214 122.609299,258.679214 123.600204C258.679214 124.591110,259.072906 125.541306,259.773529 126.241928C260.474152 126.942551,261.424347 127.336243,262.415253 127.336243C263.406158 127.336243,264.356354 126.942551,265.056976 126.241928C265.757599 125.541306,266.151291 124.591110,266.151291 123.600204Z" style="fill: rgb(100.000000%,100.000000%,100.000000%);stroke: none;"></path>
  <path d="M242.705566 106.828430C250.369598 111.074738,257.234406 116.399460,262.415253 123.600204C272.477402 137.585388,274.259720 153.851471,270.907349 170.283600" style="stroke:rgb(0.000000%,0.000000%,0.000000%); stroke-width: 0.498138;stroke-linecap: round;stroke-linejoin: round;stroke-miterlimit: 10.000000;fill: none;"></path>
  <path d="M109.422745 200.169067C109.422745 199.178162,109.029053 198.227966,108.328430 197.527344C107.627808 196.826721,106.677612 196.433029,105.686707 196.433029C104.695801 196.433029,103.745605 196.826721,103.044983 197.527344C102.344360 198.227966,101.950668 199.178162,101.950668 200.169067C101.950668 201.159973,102.344360 202.110168,103.044983 202.810791C103.745605 203.511414,104.695801 203.905106,105.686707 203.905106C106.677612 203.905106,107.627808 203.511414,108.328430 202.810791C109.029053 202.110168,109.422745 201.159973,109.422745 200.169067Z" style="fill: rgb(100.000000%,100.000000%,100.000000%);stroke: none;"></path>
  <path d="M112.485138 212.242676C110.106674 208.282639,107.826340 204.264893,105.686707 200.169067C104.168716 197.263245,102.722672 194.320038,101.372650 191.334198" style="stroke:rgb(0.000000%,0.000000%,0.000000%); stroke-width: 0.498138;stroke-linecap: round;stroke-linejoin: round;stroke-miterlimit: 10.000000;fill: none;"></path>
  <path d="M62.908325 67.818161C62.908325 66.827255,62.514633 65.877060,61.814011 65.176437C61.113388 64.475815,60.163193 64.082123,59.172287 64.082123C58.181381 64.082123,57.231186 64.475815,56.530563 65.176437C55.829941 65.877060,55.436249 66.827255,55.436249 67.818161C55.436249 68.809067,55.829941 69.759262,56.530563 70.459885C57.231186 71.160507,58.181381 71.554199,59.172287 71.554199C60.163193 71.554199,61.113388 71.160507,61.814011 70.459885C62.514633 69.759262,62.908325 68.809067,62.908325 67.818161Z" style="fill: rgb(100.000000%,100.000000%,100.000000%);stroke: none;"></path>
  <path d="M20.886719 88.843201C30.465622 76.723770,43.271515 68.555252,59.172287 67.818161C69.770416 67.326874,79.685043 70.846344,89.590103 74.578247" style="stroke:rgb(0.000000%,0.000000%,0.000000%); stroke-width: 0.498138;stroke-linecap: round;stroke-linejoin: round;stroke-miterlimit: 10.000000;fill: none;"></path>
  <path d="M197.296860 88.947952C197.296860 87.957047,196.903168 87.006851,196.202545 86.306229C195.501923 85.605606,194.551727 85.211914,193.560822 85.211914C192.569916 85.211914,191.619720 85.605606,190.919098 86.306229C190.218475 87.006851,189.824783 87.957047,189.824783 88.947952C189.824783 89.938858,190.218475 90.889053,190.919098 91.589676C191.619720 92.290298,192.569916 92.683990,193.560822 92.683990C194.551727 92.683990,195.501923 92.290298,196.202545 91.589676C196.903168 90.889053,197.296860 89.938858,197.296860 88.947952Z" style="fill: rgb(100.000000%,100.000000%,100.000000%);stroke: none;"></path>
  <path d="M184.535751 86.884583C187.561783 87.487717,190.569977 88.183899,193.560822 88.947952C197.725586 90.011902,201.853668 91.206512,205.956482 92.485229" style="stroke:rgb(0.000000%,0.000000%,0.000000%); stroke-width: 0.498138;stroke-linecap: round;stroke-linejoin: round;stroke-miterlimit: 10.000000;fill: none;"></path>
  <path d="M142.123795 174.870102C142.123795 173.879196,141.730103 172.929001,141.029480 172.228378C140.328857 171.527756,139.378662 171.134064,138.387756 171.134064C137.396851 171.134064,136.446655 171.527756,135.746033 172.228378C135.045410 172.929001,134.651718 173.879196,134.651718 174.870102C134.651718 175.861008,135.045410 176.811203,135.746033 177.511826C136.446655 178.212448,137.396851 178.606140,138.387756 178.606140C139.378662 178.606140,140.328857 178.212448,141.029480 177.511826C141.730103 176.811203,142.123795 175.861008,142.123795 174.870102Z" style="fill: rgb(100.000000%,100.000000%,100.000000%);stroke: none;"></path>
  <path d="M148.992508 162.988586C145.529419 167.011536,141.984924 170.965271,138.387756 174.870102C135.959610 177.505936,133.503448 180.123154,130.944244 182.628372" style="stroke:rgb(0.000000%,0.000000%,0.000000%); stroke-width: 0.498138;stroke-linecap: round;stroke-linejoin: round;stroke-miterlimit: 10.000000;fill: none;"></path>
  <path d="M34.017044 212.553543C34.017044 211.562637,33.623352 210.612442,32.922729 209.911819C32.222107 209.211197,31.271912 208.817505,30.281006 208.817505C29.290100 208.817505,28.339905 209.211197,27.639282 209.911819C26.938660 210.612442,26.544968 211.562637,26.544968 212.553543C26.544968 213.544449,26.938660 214.494644,27.639282 215.195267C28.339905 215.895889,29.290100 216.289581,30.281006 216.289581C31.271912 216.289581,32.222107 215.895889,32.922729 215.195267C33.623352 214.494644,34.017044 213.544449,34.017044 212.553543Z" style="fill: rgb(100.000000%,100.000000%,100.000000%);stroke: none;"></path>
  <path d="M55.509323 216.610535C46.855637 217.279953,38.287964 216.280334,30.281006 212.553543C16.431152 206.107208,7.922256 194.262314,3.590530 180.078964" style="stroke:rgb(0.000000%,0.000000%,0.000000%); stroke-width: 0.498138;stroke-linecap: round;stroke-linejoin: round;stroke-miterlimit: 10.000000;fill: none;"></path>
  <g transform="translate(65.687103 79.630219)" style="fill: rgb(0.000000%,0.000000%,0.000000%);">
    <use xlink:href="#GLYPHcmr10_49"></use>
  </g>
  <g transform="translate(175.487640 19.348740)" style="fill: rgb(0.000000%,0.000000%,0.000000%);">
    <use xlink:href="#GLYPHcmr10_50"></use>
  </g>
  <g transform="translate(143.775925 95.356827)" style="fill: rgb(0.000000%,0.000000%,0.000000%);">
    <use xlink:href="#GLYPHcmr10_51"></use>
  </g>
  <g transform="translate(180.456345 98.672211)" style="fill: rgb(0.000000%,0.000000%,0.000000%);">
    <use xlink:href="#GLYPHcmr10_52"></use>
  </g>
  <g transform="translate(100.346451 171.296310)" style="fill: rgb(0.000000%,0.000000%,0.000000%);">
    <use xlink:href="#GLYPHcmr10_53"></use>
  </g>
  <g transform="translate(107.077316 191.546051)" style="fill: rgb(0.000000%,0.000000%,0.000000%);">
    <use xlink:href="#GLYPHcmr10_54"></use>
  </g>
  <g transform="translate(154.477036 253.427719)" style="fill: rgb(0.000000%,0.000000%,0.000000%);">
    <use xlink:href="#GLYPHcmr10_55"></use>
  </g>
  <g transform="translate(39.032791 210.406754)" style="fill: rgb(0.000000%,0.000000%,0.000000%);">
    <use xlink:href="#GLYPHcmr10_56"></use>
  </g>
</svg>
