<?xml version="1.0"?>
<!-- Created by MetaPost 2.000 on 2023.08.28:1608 -->
<svg version="1.1" xmlns="http://www.w3.org/2000/svg" xmlns:xlink="http://www.w3.org/1999/xlink" width="394.062393" height="323.727844" viewBox="0 0 394.062393 323.727844">
<!-- Original BoundingBox: -313.404892 -52.617569 80.657501 271.110275 -->
  <defs>
    <g transform="scale(0.009963,0.009963)" id="GLYPHcmr10_48">
      <path style="fill-rule: evenodd;" d="M460.000000 -320.000000C460.000000 -400.000000,455.000000 -480.000000,420.000000 -554.000000C374.000000 -650.000000,292.000000 -666.000000,250.000000 -666.000000C190.000000 -666.000000,117.000000 -640.000000,76.000000 -547.000000C44.000000 -478.000000,39.000000 -400.000000,39.000000 -320.000000C39.000000 -245.000000,43.000000 -155.000000,84.000000 -79.000000C127.000000 2.000000,200.000000 22.000000,249.000000 22.000000C303.000000 22.000000,379.000000 1.000000,423.000000 -94.000000C455.000000 -163.000000,460.000000 -241.000000,460.000000 -320.000000M249.000000 -0.000000C210.000000 -0.000000,151.000000 -25.000000,133.000000 -121.000000C122.000000 -181.000000,122.000000 -273.000000,122.000000 -332.000000C122.000000 -396.000000,122.000000 -462.000000,130.000000 -516.000000C149.000000 -635.000000,224.000000 -644.000000,249.000000 -644.000000C282.000000 -644.000000,348.000000 -626.000000,367.000000 -527.000000C377.000000 -471.000000,377.000000 -395.000000,377.000000 -332.000000C377.000000 -257.000000,377.000000 -189.000000,366.000000 -125.000000C351.000000 -30.000000,294.000000 -0.000000,249.000000 -0.000000"></path>
    </g>
    <g transform="scale(0.009963,0.009963)" id="GLYPHcmr10_49">
      <path style="fill-rule: evenodd;" d="M294.000000 -640.000000C294.000000 -664.000000,294.000000 -666.000000,271.000000 -666.000000C209.000000 -602.000000,121.000000 -602.000000,89.000000 -602.000000L89.000000 -571.000000C109.000000 -571.000000,168.000000 -571.000000,220.000000 -597.000000L220.000000 -79.000000C220.000000 -43.000000,217.000000 -31.000000,127.000000 -31.000000L95.000000 -31.000000L95.000000 -0.000000C130.000000 -3.000000,217.000000 -3.000000,257.000000 -3.000000C297.000000 -3.000000,384.000000 -3.000000,419.000000 -0.000000L419.000000 -31.000000L387.000000 -31.000000C297.000000 -31.000000,294.000000 -42.000000,294.000000 -79.000000"></path>
    </g>
    <g transform="scale(0.009963,0.009963)" id="GLYPHcmr10_50">
      <path style="fill-rule: evenodd;" d="M127.000000 -77.000000L233.000000 -180.000000C389.000000 -318.000000,449.000000 -372.000000,449.000000 -472.000000C449.000000 -586.000000,359.000000 -666.000000,237.000000 -666.000000C124.000000 -666.000000,50.000000 -574.000000,50.000000 -485.000000C50.000000 -429.000000,100.000000 -429.000000,103.000000 -429.000000C120.000000 -429.000000,155.000000 -441.000000,155.000000 -482.000000C155.000000 -508.000000,137.000000 -534.000000,102.000000 -534.000000C94.000000 -534.000000,92.000000 -534.000000,89.000000 -533.000000C112.000000 -598.000000,166.000000 -635.000000,224.000000 -635.000000C315.000000 -635.000000,358.000000 -554.000000,358.000000 -472.000000C358.000000 -392.000000,308.000000 -313.000000,253.000000 -251.000000L61.000000 -37.000000C50.000000 -26.000000,50.000000 -24.000000,50.000000 -0.000000L421.000000 -0.000000L449.000000 -174.000000L424.000000 -174.000000C419.000000 -144.000000,412.000000 -100.000000,402.000000 -85.000000C395.000000 -77.000000,329.000000 -77.000000,307.000000 -77.000000"></path>
    </g>
    <g transform="scale(0.009963,0.009963)" id="GLYPHcmr10_51">
      <path style="fill-rule: evenodd;" d="M290.000000 -352.000000C372.000000 -379.000000,430.000000 -449.000000,430.000000 -528.000000C430.000000 -610.000000,342.000000 -666.000000,246.000000 -666.000000C145.000000 -666.000000,69.000000 -606.000000,69.000000 -530.000000C69.000000 -497.000000,91.000000 -478.000000,120.000000 -478.000000C151.000000 -478.000000,171.000000 -500.000000,171.000000 -529.000000C171.000000 -579.000000,124.000000 -579.000000,109.000000 -579.000000C140.000000 -628.000000,206.000000 -641.000000,242.000000 -641.000000C283.000000 -641.000000,338.000000 -619.000000,338.000000 -529.000000C338.000000 -517.000000,336.000000 -459.000000,310.000000 -415.000000C280.000000 -367.000000,246.000000 -364.000000,221.000000 -363.000000C213.000000 -362.000000,189.000000 -360.000000,182.000000 -360.000000C174.000000 -359.000000,167.000000 -358.000000,167.000000 -348.000000C167.000000 -337.000000,174.000000 -337.000000,191.000000 -337.000000L235.000000 -337.000000C317.000000 -337.000000,354.000000 -269.000000,354.000000 -171.000000C354.000000 -35.000000,285.000000 -6.000000,241.000000 -6.000000C198.000000 -6.000000,123.000000 -23.000000,88.000000 -82.000000C123.000000 -77.000000,154.000000 -99.000000,154.000000 -137.000000C154.000000 -173.000000,127.000000 -193.000000,98.000000 -193.000000C74.000000 -193.000000,42.000000 -179.000000,42.000000 -135.000000C42.000000 -44.000000,135.000000 22.000000,244.000000 22.000000C366.000000 22.000000,457.000000 -69.000000,457.000000 -171.000000C457.000000 -253.000000,394.000000 -331.000000,290.000000 -352.000000"></path>
    </g>
    <g transform="scale(0.009963,0.009963)" id="GLYPHcmr10_52">
      <path style="fill-rule: evenodd;" d="M294.000000 -165.000000L294.000000 -78.000000C294.000000 -42.000000,292.000000 -31.000000,218.000000 -31.000000L197.000000 -31.000000L197.000000 -0.000000C238.000000 -3.000000,290.000000 -3.000000,332.000000 -3.000000C374.000000 -3.000000,427.000000 -3.000000,468.000000 -0.000000L468.000000 -31.000000L447.000000 -31.000000C373.000000 -31.000000,371.000000 -42.000000,371.000000 -78.000000L371.000000 -165.000000L471.000000 -165.000000L471.000000 -196.000000L371.000000 -196.000000L371.000000 -651.000000C371.000000 -671.000000,371.000000 -677.000000,355.000000 -677.000000C346.000000 -677.000000,343.000000 -677.000000,335.000000 -665.000000L28.000000 -196.000000L28.000000 -165.000000M300.000000 -196.000000L56.000000 -196.000000L300.000000 -569.000000"></path>
    </g>
    <g transform="scale(0.009963,0.009963)" id="GLYPHcmr10_53">
      <path style="fill-rule: evenodd;" d="M449.000000 -201.000000C449.000000 -320.000000,367.000000 -420.000000,259.000000 -420.000000C211.000000 -420.000000,168.000000 -404.000000,132.000000 -369.000000L132.000000 -564.000000C152.000000 -558.000000,185.000000 -551.000000,217.000000 -551.000000C340.000000 -551.000000,410.000000 -642.000000,410.000000 -655.000000C410.000000 -661.000000,407.000000 -666.000000,400.000000 -666.000000C399.000000 -666.000000,397.000000 -666.000000,392.000000 -663.000000C372.000000 -654.000000,323.000000 -634.000000,256.000000 -634.000000C216.000000 -634.000000,170.000000 -641.000000,123.000000 -662.000000C115.000000 -665.000000,113.000000 -665.000000,111.000000 -665.000000C101.000000 -665.000000,101.000000 -657.000000,101.000000 -641.000000L101.000000 -345.000000C101.000000 -327.000000,101.000000 -319.000000,115.000000 -319.000000C122.000000 -319.000000,124.000000 -322.000000,128.000000 -328.000000C139.000000 -344.000000,176.000000 -398.000000,257.000000 -398.000000C309.000000 -398.000000,334.000000 -352.000000,342.000000 -334.000000C358.000000 -297.000000,360.000000 -258.000000,360.000000 -208.000000C360.000000 -173.000000,360.000000 -113.000000,336.000000 -71.000000C312.000000 -32.000000,275.000000 -6.000000,229.000000 -6.000000C156.000000 -6.000000,99.000000 -59.000000,82.000000 -118.000000C85.000000 -117.000000,88.000000 -116.000000,99.000000 -116.000000C132.000000 -116.000000,149.000000 -141.000000,149.000000 -165.000000C149.000000 -189.000000,132.000000 -214.000000,99.000000 -214.000000C85.000000 -214.000000,50.000000 -207.000000,50.000000 -161.000000C50.000000 -75.000000,119.000000 22.000000,231.000000 22.000000C347.000000 22.000000,449.000000 -74.000000,449.000000 -201.000000"></path>
    </g>
    <g transform="scale(0.009963,0.009963)" id="GLYPHcmr10_54">
      <path style="fill-rule: evenodd;" d="M132.000000 -328.000000L132.000000 -352.000000C132.000000 -605.000000,256.000000 -641.000000,307.000000 -641.000000C331.000000 -641.000000,373.000000 -635.000000,395.000000 -601.000000C380.000000 -601.000000,340.000000 -601.000000,340.000000 -556.000000C340.000000 -525.000000,364.000000 -510.000000,386.000000 -510.000000C402.000000 -510.000000,432.000000 -519.000000,432.000000 -558.000000C432.000000 -618.000000,388.000000 -666.000000,305.000000 -666.000000C177.000000 -666.000000,42.000000 -537.000000,42.000000 -316.000000C42.000000 -49.000000,158.000000 22.000000,251.000000 22.000000C362.000000 22.000000,457.000000 -72.000000,457.000000 -204.000000C457.000000 -331.000000,368.000000 -427.000000,257.000000 -427.000000C189.000000 -427.000000,152.000000 -376.000000,132.000000 -328.000000M251.000000 -6.000000C188.000000 -6.000000,158.000000 -66.000000,152.000000 -81.000000C134.000000 -128.000000,134.000000 -208.000000,134.000000 -226.000000C134.000000 -304.000000,166.000000 -404.000000,256.000000 -404.000000C272.000000 -404.000000,318.000000 -404.000000,349.000000 -342.000000C367.000000 -305.000000,367.000000 -254.000000,367.000000 -205.000000C367.000000 -157.000000,367.000000 -107.000000,350.000000 -71.000000C320.000000 -11.000000,274.000000 -6.000000,251.000000 -6.000000"></path>
    </g>
    <g transform="scale(0.009963,0.009963)" id="GLYPHcmr10_55">
      <path style="fill-rule: evenodd;" d="M476.000000 -609.000000C485.000000 -621.000000,485.000000 -623.000000,485.000000 -644.000000L242.000000 -644.000000C120.000000 -644.000000,118.000000 -657.000000,114.000000 -676.000000L89.000000 -676.000000L56.000000 -470.000000L81.000000 -470.000000C84.000000 -486.000000,93.000000 -549.000000,106.000000 -561.000000C113.000000 -567.000000,191.000000 -567.000000,204.000000 -567.000000L411.000000 -567.000000C400.000000 -551.000000,321.000000 -442.000000,299.000000 -409.000000C209.000000 -274.000000,176.000000 -135.000000,176.000000 -33.000000C176.000000 -23.000000,176.000000 22.000000,222.000000 22.000000C268.000000 22.000000,268.000000 -23.000000,268.000000 -33.000000L268.000000 -84.000000C268.000000 -139.000000,271.000000 -194.000000,279.000000 -248.000000C283.000000 -271.000000,297.000000 -357.000000,341.000000 -419.000000"></path>
    </g>
    <g transform="scale(0.009963,0.009963)" id="GLYPHcmr10_56">
      <path style="fill-rule: evenodd;" d="M163.000000 -457.000000C117.000000 -487.000000,113.000000 -521.000000,113.000000 -538.000000C113.000000 -599.000000,178.000000 -641.000000,249.000000 -641.000000C322.000000 -641.000000,386.000000 -589.000000,386.000000 -517.000000C386.000000 -460.000000,347.000000 -412.000000,287.000000 -377.000000M309.000000 -362.000000C381.000000 -399.000000,430.000000 -451.000000,430.000000 -517.000000C430.000000 -609.000000,341.000000 -666.000000,250.000000 -666.000000C150.000000 -666.000000,69.000000 -592.000000,69.000000 -499.000000C69.000000 -481.000000,71.000000 -436.000000,113.000000 -389.000000C124.000000 -377.000000,161.000000 -352.000000,186.000000 -335.000000C128.000000 -306.000000,42.000000 -250.000000,42.000000 -151.000000C42.000000 -45.000000,144.000000 22.000000,249.000000 22.000000C362.000000 22.000000,457.000000 -61.000000,457.000000 -168.000000C457.000000 -204.000000,446.000000 -249.000000,408.000000 -291.000000C389.000000 -312.000000,373.000000 -322.000000,309.000000 -362.000000M209.000000 -320.000000L332.000000 -242.000000C360.000000 -223.000000,407.000000 -193.000000,407.000000 -132.000000C407.000000 -58.000000,332.000000 -6.000000,250.000000 -6.000000C164.000000 -6.000000,92.000000 -68.000000,92.000000 -151.000000C92.000000 -209.000000,124.000000 -273.000000,209.000000 -320.000000"></path>
    </g>
    <g transform="scale(0.009963,0.009963)" id="GLYPHcmr10_57">
      <path style="fill-rule: evenodd;" d="M367.000000 -318.000000L367.000000 -286.000000C367.000000 -52.000000,263.000000 -6.000000,205.000000 -6.000000C188.000000 -6.000000,134.000000 -8.000000,107.000000 -42.000000C151.000000 -42.000000,159.000000 -71.000000,159.000000 -88.000000C159.000000 -119.000000,135.000000 -134.000000,113.000000 -134.000000C97.000000 -134.000000,67.000000 -125.000000,67.000000 -86.000000C67.000000 -19.000000,121.000000 22.000000,206.000000 22.000000C335.000000 22.000000,457.000000 -114.000000,457.000000 -329.000000C457.000000 -598.000000,342.000000 -666.000000,253.000000 -666.000000C198.000000 -666.000000,149.000000 -648.000000,106.000000 -603.000000C65.000000 -558.000000,42.000000 -516.000000,42.000000 -441.000000C42.000000 -316.000000,130.000000 -218.000000,242.000000 -218.000000C303.000000 -218.000000,344.000000 -260.000000,367.000000 -318.000000M243.000000 -241.000000C227.000000 -241.000000,181.000000 -241.000000,150.000000 -304.000000C132.000000 -341.000000,132.000000 -391.000000,132.000000 -440.000000C132.000000 -494.000000,132.000000 -541.000000,153.000000 -578.000000C180.000000 -628.000000,218.000000 -641.000000,253.000000 -641.000000C299.000000 -641.000000,332.000000 -607.000000,349.000000 -562.000000C361.000000 -530.000000,365.000000 -467.000000,365.000000 -421.000000C365.000000 -338.000000,331.000000 -241.000000,243.000000 -241.000000"></path>
    </g>
  </defs>
  <path d="M391.035873 223.575974C384.374405 249.322418,363.250854 267.584183,338.524750 271.761673" style="stroke:rgb(0.000000%,0.000000%,0.000000%); stroke-width: 0.498138;stroke-linecap: round;stroke-linejoin: round;stroke-miterlimit: 10.000000;fill: none;"></path>
  <path d="M343.456070 268.343445C341.870743 269.553925,340.225708 270.695099,338.524750 271.761673C340.481689 272.210266,342.451828 272.566620,344.428757 272.831696Z" style="stroke:rgb(0.000000%,0.000000%,0.000000%); stroke-width: 0.498138;fill: rgb(0.000000%,0.000000%,0.000000%);"></path>
  <path d="M338.524750 271.761673C330.282715 273.154175,321.640396 272.981766,313.000000 271.000000C288.262253 265.326157,270.376755 245.713593,254.506836 225.910995" style="stroke:rgb(0.000000%,0.000000%,0.000000%); stroke-width: 0.498138;stroke-linecap: round;stroke-linejoin: round;stroke-miterlimit: 10.000000;fill: none;"></path>
  <path d="M254.506836 225.910995C245.429581 214.584335,236.638550 202.991379,226.444214 192.652298C222.467117 188.618729,218.335907 184.270447,215.664597 179.645966" style="stroke:rgb(0.000000%,0.000000%,0.000000%); stroke-width: 0.498138;stroke-linecap: round;stroke-linejoin: round;stroke-miterlimit: 10.000000;fill: none;"></path>
  <path d="M391.035873 223.575974C386.594894 240.740265,375.726318 254.578033,361.647781 263.133850" style="stroke:rgb(0.000000%,0.000000%,0.000000%); stroke-width: 0.498138;stroke-linecap: round;stroke-dasharray: 3.000000 3.000000 ;stroke-linejoin: round;stroke-miterlimit: 10.000000;fill: none;"></path>
  <path d="M215.664597 179.645966C212.993286 175.021484,211.781860 170.120804,213.644302 164.982437C217.347702 154.764984,229.807312 153.056656,240.994095 151.873932C255.048431 150.388031,268.819687 147.092468,282.569473 143.844681C306.209732 138.260712,331.078186 132.984879,353.483704 142.440933C384.536514 155.546509,399.591461 190.509827,391.035873 223.575974" style="stroke:rgb(0.000000%,0.000000%,0.000000%); stroke-width: 0.498138;stroke-linecap: round;stroke-dasharray: 3.000000 3.000000 ;stroke-linejoin: round;stroke-miterlimit: 10.000000;fill: none;"></path>
  <path d="M98.127243 68.565262C101.854309 75.058685,104.417587 82.128571,107.516724 88.935699" style="stroke:rgb(0.000000%,0.000000%,0.000000%); stroke-width: 0.498138;stroke-linecap: round;stroke-linejoin: round;stroke-miterlimit: 10.000000;fill: none;"></path>
  <path d="M103.193146 84.775574C104.622040 86.176117,106.055298 87.571899,107.516724 88.935699C107.447723 86.937958,107.421265 84.937531,107.401245 82.936798Z" style="stroke:rgb(0.000000%,0.000000%,0.000000%); stroke-width: 0.498138;fill: rgb(0.000000%,0.000000%,0.000000%);"></path>
  <path d="M107.516724 88.935699C108.549759 91.204742,109.642349 93.444580,110.857422 95.624146C116.928345 106.513947,123.987091 118.946106,115.713028 127.118195" style="stroke:rgb(0.000000%,0.000000%,0.000000%); stroke-width: 0.498138;stroke-linecap: round;stroke-linejoin: round;stroke-miterlimit: 10.000000;fill: none;"></path>
  <path d="M115.713028 127.118195C108.073242 134.662415,99.373734 141.051743,89.889282 146.084320C80.764191 150.926224,70.993744 154.466797,60.829880 156.319824C43.819519 159.421066,25.637894 157.409058,13.229004 145.560028C4.633575 137.352402,0.566910 126.598770,-0.067108 115.114441" style="stroke:rgb(0.000000%,0.000000%,0.000000%); stroke-width: 0.498138;stroke-linecap: round;stroke-linejoin: round;stroke-miterlimit: 10.000000;fill: none;"></path>
  <path d="M98.127243 68.565262C100.611954 72.894211,102.579422 77.479370,104.533264 82.072083" style="stroke:rgb(0.000000%,0.000000%,0.000000%); stroke-width: 0.498138;stroke-linecap: round;stroke-dasharray: 3.000000 3.000000 ;stroke-linejoin: round;stroke-miterlimit: 10.000000;fill: none;"></path>
  <path d="M-0.067108 115.114441C-0.701126 103.630127,2.097504 91.415115,7.232666 80.284714C17.230698 58.614120,36.009766 40.905411,59.244049 42.160934C75.851822 43.058380,89.792953 54.044968,98.127243 68.565262C103.096664 77.223160,105.997116 86.905884,110.857422 95.624146" style="stroke:rgb(0.000000%,0.000000%,0.000000%); stroke-width: 0.498138;stroke-linecap: round;stroke-dasharray: 3.000000 3.000000 ;stroke-linejoin: round;stroke-miterlimit: 10.000000;fill: none;"></path>
  <path d="M353.074036 85.678589C357.423889 94.148407,359.878479 103.591583,360.069519 113.291016" style="stroke:rgb(0.000000%,0.000000%,0.000000%); stroke-width: 0.498138;stroke-linecap: round;stroke-linejoin: round;stroke-miterlimit: 10.000000;fill: none;"></path>
  <path d="M357.403000 107.916077C358.373657 109.657333,359.264313 111.450531,360.069519 113.291016C360.801605 111.420258,361.439819 109.522476,361.984756 107.604858Z" style="stroke:rgb(0.000000%,0.000000%,0.000000%); stroke-width: 0.498138;fill: rgb(0.000000%,0.000000%,0.000000%);"></path>
  <path d="M360.069504 113.290985C360.260544 122.990417,358.188034 132.946091,353.483704 142.440933C343.026657 163.546600,319.856339 176.558472,313.000000 199.293716" style="stroke:rgb(0.000000%,0.000000%,0.000000%); stroke-width: 0.498138;stroke-linecap: round;stroke-linejoin: round;stroke-miterlimit: 10.000000;fill: none;"></path>
  <path d="M313.000000 199.293716C305.960556 222.636124,318.943146 247.426361,313.000000 271.000000C303.198898 309.876297,257.723831 322.257187,214.775070 320.407364C172.746536 318.597168,128.962509 305.053772,115.826843 266.747635C107.030457 241.095703,117.826111 212.935532,110.929398 186.803894C107.001022 171.919266,97.724457 159.293839,89.889282 146.084320C86.082138 139.665756,82.597839 133.063019,79.302597 126.367493C76.396606 120.462875,73.637268 114.485245,71.187424 108.376984C68.197311 100.921646,65.675842 93.291016,63.270004 85.627747C58.802612 71.397903,54.769882 56.408401,59.244049 42.160934C67.293427 16.528610,95.620285 6.144638,123.208008 3.099915C155.307861 -0.442810,189.819794 4.399658,207.357300 30.638245C222.147003 52.765732,217.159637 81.252945,222.336319 107.076340C225.540512 123.060120,232.670761 137.872086,240.994095 151.873932C245.718994 159.822327,250.774063 168.507675,247.726425 177.159439C244.658768 185.868011,235.188766 189.452545,226.444214 192.652298C210.597229 198.450943,195.205795 205.685028,181.948990 216.143753C159.814636 233.606277,143.470337 259.861725,115.826843 266.747635C82.164398 275.132858,50.687988 252.712982,28.887497 224.441498C10.564362 200.679565,-1.615448 170.398636,13.229004 145.560028C21.103149 132.384552,35.209869 125.014328,49.008545 118.349213C56.309799 114.822510,63.649994 111.367416,71.187424 108.376984C77.264389 105.965988,83.456619 103.862274,89.673340 101.839661C96.673508 99.562149,103.709534 97.385925,110.857422 95.624146C125.268021 92.072266,140.379623 90.085831,152.940155 82.095444C174.338989 68.482559,183.644409 40.409225,207.357300 30.638245C240.873581 16.827744,272.600845 46.629272,307.178009 52.276627" style="stroke:rgb(0.000000%,0.000000%,0.000000%); stroke-width: 0.498138;stroke-linecap: round;stroke-linejoin: round;stroke-miterlimit: 10.000000;fill: none;"></path>
  <path d="M307.178009 52.276627C317.635803 53.984665,326.934891 58.100235,334.706985 63.906265" style="stroke:rgb(0.000000%,0.000000%,0.000000%); stroke-width: 0.498138;stroke-linecap: round;stroke-linejoin: round;stroke-miterlimit: 10.000000;fill: none;"></path>
  <path d="M334.706985 63.906265C342.478958 69.712204,348.723999 77.208527,353.073837 85.678192" style="stroke:rgb(0.000000%,0.000000%,0.000000%); stroke-width: 0.498138;stroke-linecap: round;stroke-dasharray: 3.000000 3.000000 ;stroke-linejoin: round;stroke-miterlimit: 10.000000;fill: none;"></path>
  <path d="M316.736038 271.000000C316.736038 270.009094,316.342346 269.058899,315.641724 268.358276C314.941101 267.657654,313.990906 267.263962,313.000000 267.263962C312.009094 267.263962,311.058899 267.657654,310.358276 268.358276C309.657654 269.058899,309.263962 270.009094,309.263962 271.000000C309.263962 271.990906,309.657654 272.941101,310.358276 273.641724C311.058899 274.342346,312.009094 274.736038,313.000000 274.736038C313.990906 274.736038,314.941101 274.342346,315.641724 273.641724C316.342346 272.941101,316.736038 271.990906,316.736038 271.000000Z" style="fill: rgb(100.000000%,100.000000%,100.000000%);stroke: none;"></path>
  <path d="M361.647781 263.133850C347.569260 271.689667,330.280792 274.963516,313.000000 271.000000C300.631119 268.163071,289.975311 261.841461,280.427979 253.753769" style="stroke:rgb(0.000000%,0.000000%,0.000000%); stroke-width: 0.498138;stroke-linecap: round;stroke-linejoin: round;stroke-miterlimit: 10.000000;fill: none;"></path>
  <path d="M244.730133 151.873932C244.730133 150.883026,244.336441 149.932831,243.635818 149.232208C242.935196 148.531586,241.985001 148.137894,240.994095 148.137894C240.003189 148.137894,239.052994 148.531586,238.352371 149.232208C237.651749 149.932831,237.258057 150.883026,237.258057 151.873932C237.258057 152.864838,237.651749 153.815033,238.352371 154.515656C239.052994 155.216278,240.003189 155.609970,240.994095 155.609970C241.985001 155.609970,242.935196 155.216278,243.635818 154.515656C244.336441 153.815033,244.730133 152.864838,244.730133 151.873932Z" style="fill: rgb(100.000000%,100.000000%,100.000000%);stroke: none;"></path>
  <path d="M229.745544 130.218384C232.969040 137.669571,236.832428 144.873016,240.994095 151.873932C243.356552 155.848129,245.801544 160.006577,247.274979 164.252930" style="stroke:rgb(0.000000%,0.000000%,0.000000%); stroke-width: 0.498138;stroke-linecap: round;stroke-linejoin: round;stroke-miterlimit: 10.000000;fill: none;"></path>
  <path d="M93.625320 146.084320C93.625320 145.093414,93.231628 144.143219,92.531006 143.442596C91.830383 142.741974,90.880188 142.348282,89.889282 142.348282C88.898376 142.348282,87.948181 142.741974,87.247559 143.442596C86.546936 144.143219,86.153244 145.093414,86.153244 146.084320C86.153244 147.075226,86.546936 148.025421,87.247559 148.726044C87.948181 149.426666,88.898376 149.820358,89.889282 149.820358C90.880188 149.820358,91.830383 149.426666,92.531006 148.726044C93.231628 148.025421,93.625320 147.075226,93.625320 146.084320Z" style="fill: rgb(100.000000%,100.000000%,100.000000%);stroke: none;"></path>
  <path d="M101.874374 165.815933C98.084793 159.147812,93.806870 152.689072,89.889282 146.084320C87.985703 142.875031,86.162842 139.619705,84.403961 136.329758" style="stroke:rgb(0.000000%,0.000000%,0.000000%); stroke-width: 0.498138;stroke-linecap: round;stroke-linejoin: round;stroke-miterlimit: 10.000000;fill: none;"></path>
  <path d="M62.980087 42.160934C62.980087 41.170029,62.586395 40.219833,61.885773 39.519211C61.185150 38.818588,60.234955 38.424896,59.244049 38.424896C58.253143 38.424896,57.302948 38.818588,56.602325 39.519211C55.901703 40.219833,55.508011 41.170029,55.508011 42.160934C55.508011 43.151840,55.901703 44.102036,56.602325 44.802658C57.302948 45.503281,58.253143 45.896973,59.244049 45.896973C60.234955 45.896973,61.185150 45.503281,61.885773 44.802658C62.586395 44.102036,62.980087 43.151840,62.980087 42.160934Z" style="fill: rgb(100.000000%,100.000000%,100.000000%);stroke: none;"></path>
  <path d="M57.903931 63.900940C56.896606 56.593903,57.006973 49.284668,59.244049 42.160934C63.268738 29.344772,72.362808 20.340698,83.899170 14.160065" style="stroke:rgb(0.000000%,0.000000%,0.000000%); stroke-width: 0.498138;stroke-linecap: round;stroke-linejoin: round;stroke-miterlimit: 10.000000;fill: none;"></path>
  <path d="M357.219742 142.440933C357.219742 141.450027,356.826050 140.499832,356.125427 139.799210C355.424805 139.098587,354.474609 138.704895,353.483704 138.704895C352.492798 138.704895,351.542603 139.098587,350.841980 139.799210C350.141357 140.499832,349.747665 141.450027,349.747665 142.440933C349.747665 143.431839,350.141357 144.382034,350.841980 145.082657C351.542603 145.783279,352.492798 146.176971,353.483704 146.176971C354.474609 146.176971,355.424805 145.783279,356.125427 145.082657C356.826050 144.382034,357.219742 143.431839,357.219742 142.440933Z" style="fill: rgb(100.000000%,100.000000%,100.000000%);stroke: none;"></path>
  <path d="M353.074036 85.678589C361.773727 102.618225,362.892365 123.451263,353.483704 142.440933C348.255173 152.993774,339.848328 161.523163,331.891571 170.256241" style="stroke:rgb(0.000000%,0.000000%,0.000000%); stroke-width: 0.498138;stroke-linecap: round;stroke-linejoin: round;stroke-miterlimit: 10.000000;fill: none;"></path>
  <path d="M119.562881 266.747635C119.562881 265.756729,119.169189 264.806534,118.468567 264.105911C117.767944 263.405289,116.817749 263.011597,115.826843 263.011597C114.835938 263.011597,113.885742 263.405289,113.185120 264.105911C112.484497 264.806534,112.090805 265.756729,112.090805 266.747635C112.090805 267.738541,112.484497 268.688736,113.185120 269.389359C113.885742 270.089981,114.835938 270.483673,115.826843 270.483673C116.817749 270.483673,117.767944 270.089981,118.468567 269.389359C119.169189 268.688736,119.562881 267.738541,119.562881 266.747635Z" style="fill: rgb(100.000000%,100.000000%,100.000000%);stroke: none;"></path>
  <path d="M150.953842 245.411942C140.645538 255.019348,129.648590 263.304688,115.826843 266.747635C98.995621 270.940247,82.710907 267.431580,67.908936 259.340820" style="stroke:rgb(0.000000%,0.000000%,0.000000%); stroke-width: 0.498138;stroke-linecap: round;stroke-linejoin: round;stroke-miterlimit: 10.000000;fill: none;"></path>
  <path d="M74.923462 108.376984C74.923462 107.386078,74.529770 106.435883,73.829147 105.735260C73.128525 105.034637,72.178329 104.640945,71.187424 104.640945C70.196518 104.640945,69.246323 105.034637,68.545700 105.735260C67.845078 106.435883,67.451385 107.386078,67.451385 108.376984C67.451385 109.367889,67.845078 110.318085,68.545700 111.018707C69.246323 111.719330,70.196518 112.113022,71.187424 112.113022C72.178329 112.113022,73.128525 111.719330,73.829147 111.018707C74.529770 110.318085,74.923462 109.367889,74.923462 108.376984Z" style="fill: rgb(100.000000%,100.000000%,100.000000%);stroke: none;"></path>
  <path d="M60.009430 113.161987C63.699310 111.483566,67.418716 109.872192,71.187424 108.376984C74.225906 107.171478,77.293213 106.042801,80.377991 104.962662" style="stroke:rgb(0.000000%,0.000000%,0.000000%); stroke-width: 0.498138;stroke-linecap: round;stroke-linejoin: round;stroke-miterlimit: 10.000000;fill: none;"></path>
  <path d="M211.093338 30.638245C211.093338 29.647339,210.699646 28.697144,209.999023 27.996521C209.298401 27.295898,208.348206 26.902206,207.357300 26.902206C206.366394 26.902206,205.416199 27.295898,204.715576 27.996521C204.014954 28.697144,203.621262 29.647339,203.621262 30.638245C203.621262 31.629150,204.014954 32.579346,204.715576 33.279968C205.416199 33.980591,206.366394 34.374283,207.357300 34.374283C208.348206 34.374283,209.298401 33.980591,209.999023 33.279968C210.699646 32.579346,211.093338 31.629150,211.093338 30.638245Z" style="fill: rgb(100.000000%,100.000000%,100.000000%);stroke: none;"></path>
  <path d="M170.743546 5.701096C185.576187 9.748688,198.588547 17.518951,207.357300 30.638245C214.752151 41.701996,217.202744 54.355667,218.451706 67.471329" style="stroke:rgb(0.000000%,0.000000%,0.000000%); stroke-width: 0.498138;stroke-linecap: round;stroke-linejoin: round;stroke-miterlimit: 10.000000;fill: none;"></path>
  <path d="M230.180252 192.652298C230.180252 191.661392,229.786560 190.711197,229.085938 190.010574C228.385315 189.309952,227.435120 188.916260,226.444214 188.916260C225.453308 188.916260,224.503113 189.309952,223.802490 190.010574C223.101868 190.711197,222.708176 191.661392,222.708176 192.652298C222.708176 193.643204,223.101868 194.593399,223.802490 195.294022C224.503113 195.994644,225.453308 196.388336,226.444214 196.388336C227.435120 196.388336,228.385315 195.994644,229.085938 195.294022C229.786560 194.593399,230.180252 193.643204,230.180252 192.652298Z" style="fill: rgb(100.000000%,100.000000%,100.000000%);stroke: none;"></path>
  <path d="M239.214142 186.971680C235.370117 189.356354,230.816483 191.052429,226.444214 192.652298C218.520721 195.551620,210.711105 198.809814,203.225266 202.650513" style="stroke:rgb(0.000000%,0.000000%,0.000000%); stroke-width: 0.498138;stroke-linecap: round;stroke-linejoin: round;stroke-miterlimit: 10.000000;fill: none;"></path>
  <path d="M16.965042 145.560028C16.965042 144.569122,16.571350 143.618927,15.870728 142.918304C15.170105 142.217682,14.219910 141.823990,13.229004 141.823990C12.238098 141.823990,11.287903 142.217682,10.587280 142.918304C9.886658 143.618927,9.492966 144.569122,9.492966 145.560028C9.492966 146.550934,9.886658 147.501129,10.587280 148.201752C11.287903 148.902374,12.238098 149.296066,13.229004 149.296066C14.219910 149.296066,15.170105 148.902374,15.870728 148.201752C16.571350 147.501129,16.965042 146.550934,16.965042 145.560028Z" style="fill: rgb(100.000000%,100.000000%,100.000000%);stroke: none;"></path>
  <path d="M35.303879 156.546280C27.081070 154.949799,19.433441 151.484543,13.229004 145.560028C4.633575 137.352402,0.566910 126.598770,-0.067108 115.114441" style="stroke:rgb(0.000000%,0.000000%,0.000000%); stroke-width: 0.498138;stroke-linecap: round;stroke-linejoin: round;stroke-miterlimit: 10.000000;fill: none;"></path>
  <path d="M114.593460 95.624146C114.593460 94.633240,114.199768 93.683044,113.499146 92.982422C112.798523 92.281799,111.848328 91.888107,110.857422 91.888107C109.866516 91.888107,108.916321 92.281799,108.215698 92.982422C107.515076 93.683044,107.121384 94.633240,107.121384 95.624146C107.121384 96.615051,107.515076 97.565247,108.215698 98.265869C108.916321 98.966492,109.866516 99.360184,110.857422 99.360184C111.848328 99.360184,112.798523 98.966492,113.499146 98.265869C114.199768 97.565247,114.593460 96.615051,114.593460 95.624146Z" style="fill: rgb(100.000000%,100.000000%,100.000000%);stroke: none;"></path>
  <path d="M104.533264 82.072083C106.487091 86.664780,108.427277 91.265015,110.857422 95.624146C113.892883 101.069046,117.175308 106.899536,118.664597 112.390320" style="stroke:rgb(0.000000%,0.000000%,0.000000%); stroke-width: 0.498138;stroke-linecap: round;stroke-linejoin: round;stroke-miterlimit: 10.000000;fill: none;"></path>
  <g transform="translate(388.545227 226.786179)" style="fill: rgb(0.000000%,0.000000%,0.000000%);">
    <use xlink:href="#GLYPHcmr10_48"></use>
  </g>
  <g transform="translate(252.016190 229.121201)" style="fill: rgb(0.000000%,0.000000%,0.000000%);">
    <use xlink:href="#GLYPHcmr10_49"></use>
  </g>
  <g transform="translate(211.153656 168.192642)" style="fill: rgb(0.000000%,0.000000%,0.000000%);">
    <use xlink:href="#GLYPHcmr10_50"></use>
  </g>
  <g transform="translate(280.078827 147.054886)" style="fill: rgb(0.000000%,0.000000%,0.000000%);">
    <use xlink:href="#GLYPHcmr10_51"></use>
  </g>
  <g transform="translate(113.222382 130.328400)" style="fill: rgb(0.000000%,0.000000%,0.000000%);">
    <use xlink:href="#GLYPHcmr10_52"></use>
  </g>
  <g transform="translate(58.339233 159.530029)" style="fill: rgb(0.000000%,0.000000%,0.000000%);">
    <use xlink:href="#GLYPHcmr10_53"></use>
  </g>
  <g transform="translate(4.742020 83.494919)" style="fill: rgb(0.000000%,0.000000%,0.000000%);">
    <use xlink:href="#GLYPHcmr10_54"></use>
  </g>
  <g transform="translate(95.636597 71.775467)" style="fill: rgb(0.000000%,0.000000%,0.000000%);">
    <use xlink:href="#GLYPHcmr10_55"></use>
  </g>
  <g transform="translate(304.687363 55.486832)" style="fill: rgb(0.000000%,0.000000%,0.000000%);">
    <use xlink:href="#GLYPHcmr10_56"></use>
  </g>
  <g transform="translate(310.509354 202.503922)" style="fill: rgb(0.000000%,0.000000%,0.000000%);">
    <use xlink:href="#GLYPHcmr10_57"></use>
  </g>
  <g transform="translate(209.793716 323.617569)" style="fill: rgb(0.000000%,0.000000%,0.000000%);">
    <use xlink:href="#GLYPHcmr10_49"></use>
    <use xlink:href="#GLYPHcmr10_48" x="5.000095"></use>
  </g>
  <g transform="translate(105.948044 190.014099)" style="fill: rgb(0.000000%,0.000000%,0.000000%);">
    <use xlink:href="#GLYPHcmr10_49"></use>
    <use xlink:href="#GLYPHcmr10_49" x="5.000095"></use>
  </g>
  <g transform="translate(74.321243 129.577698)" style="fill: rgb(0.000000%,0.000000%,0.000000%);">
    <use xlink:href="#GLYPHcmr10_49"></use>
    <use xlink:href="#GLYPHcmr10_50" x="5.000095"></use>
  </g>
  <g transform="translate(58.288651 88.837952)" style="fill: rgb(0.000000%,0.000000%,0.000000%);">
    <use xlink:href="#GLYPHcmr10_49"></use>
    <use xlink:href="#GLYPHcmr10_51" x="5.000095"></use>
  </g>
  <g transform="translate(118.226654 6.310120)" style="fill: rgb(0.000000%,0.000000%,0.000000%);">
    <use xlink:href="#GLYPHcmr10_49"></use>
    <use xlink:href="#GLYPHcmr10_52" x="5.000095"></use>
  </g>
  <g transform="translate(217.354965 110.286545)" style="fill: rgb(0.000000%,0.000000%,0.000000%);">
    <use xlink:href="#GLYPHcmr10_49"></use>
    <use xlink:href="#GLYPHcmr10_53" x="5.000095"></use>
  </g>
  <g transform="translate(242.745071 180.369644)" style="fill: rgb(0.000000%,0.000000%,0.000000%);">
    <use xlink:href="#GLYPHcmr10_49"></use>
    <use xlink:href="#GLYPHcmr10_54" x="5.000095"></use>
  </g>
  <g transform="translate(176.967636 219.353958)" style="fill: rgb(0.000000%,0.000000%,0.000000%);">
    <use xlink:href="#GLYPHcmr10_49"></use>
    <use xlink:href="#GLYPHcmr10_55" x="5.000095"></use>
  </g>
  <g transform="translate(23.906143 227.651703)" style="fill: rgb(0.000000%,0.000000%,0.000000%);">
    <use xlink:href="#GLYPHcmr10_49"></use>
    <use xlink:href="#GLYPHcmr10_56" x="5.000095"></use>
  </g>
  <g transform="translate(44.027191 121.559418)" style="fill: rgb(0.000000%,0.000000%,0.000000%);">
    <use xlink:href="#GLYPHcmr10_49"></use>
    <use xlink:href="#GLYPHcmr10_57" x="5.000095"></use>
  </g>
  <g transform="translate(84.691986 105.049866)" style="fill: rgb(0.000000%,0.000000%,0.000000%);">
    <use xlink:href="#GLYPHcmr10_50"></use>
    <use xlink:href="#GLYPHcmr10_48" x="5.000095"></use>
  </g>
  <g transform="translate(147.958801 85.305649)" style="fill: rgb(0.000000%,0.000000%,0.000000%);">
    <use xlink:href="#GLYPHcmr10_50"></use>
    <use xlink:href="#GLYPHcmr10_49" x="5.000095"></use>
  </g>
</svg>
